<?xml version="1.0" encoding="UTF-8"?>
<svg id="Layer_1" xmlns="http://www.w3.org/2000/svg" viewBox="0 0 748 720">
  <defs>
    <style>
      .cls-1 {
        fill: none;
        stroke: #fff;
        stroke-miterlimit: 10;
        stroke-width: 4px;
      }
    </style>
  </defs>
  <polygon class="cls-1" points="210.74 264.68 537.26 264.68 739.47 455.32 8.53 455.32 210.74 264.68"/>
  <line class="cls-1" x1="45.52" y1="420.45" x2="702.48" y2="420.45"/>
  <line class="cls-1" x1="75.71" y1="391.99" x2="672.29" y2="391.99"/>
  <line class="cls-1" x1="100.82" y1="368.32" x2="647.18" y2="368.32"/>
  <line class="cls-1" x1="122.02" y1="348.32" x2="625.98" y2="348.32"/>
  <line class="cls-1" x1="140.18" y1="331.21" x2="607.82" y2="331.21"/>
  <line class="cls-1" x1="155.89" y1="316.4" x2="592.11" y2="316.4"/>
  <line class="cls-1" x1="169.62" y1="303.45" x2="578.38" y2="303.45"/>
  <line class="cls-1" x1="181.73" y1="292.03" x2="566.27" y2="292.03"/>
  <line class="cls-1" x1="192.48" y1="281.9" x2="555.52" y2="281.9"/>
  <line class="cls-1" x1="202.1" y1="272.83" x2="545.9" y2="272.83"/>
  <line class="cls-1" x1="507.57" y1="264.68" x2="673.02" y2="455.32"/>
  <line class="cls-1" x1="477.89" y1="264.68" x2="606.57" y2="455.32"/>
  <line class="cls-1" x1="448.21" y1="264.68" x2="540.12" y2="455.32"/>
  <line class="cls-1" x1="418.52" y1="264.68" x2="473.67" y2="455.32"/>
  <line class="cls-1" x1="388.84" y1="264.68" x2="407.22" y2="455.32"/>
  <line class="cls-1" x1="359.16" y1="264.68" x2="340.78" y2="455.32"/>
  <line class="cls-1" x1="329.48" y1="264.68" x2="274.33" y2="455.32"/>
  <line class="cls-1" x1="299.79" y1="264.68" x2="207.88" y2="455.32"/>
  <line class="cls-1" x1="270.11" y1="264.68" x2="141.43" y2="455.32"/>
  <line class="cls-1" x1="240.43" y1="264.68" x2="74.98" y2="455.32"/>
</svg>