# Blender 4.2.0
# www.blender.org
mtllib cargoShip.mtl
o Ship
v 0.095203 0.472920 -0.066207
v 0.095203 0.470738 0.105737
v 0.123370 0.464235 -0.066207
v 0.121757 0.462551 0.105737
v 0.130326 0.444722 -0.066207
v 0.127864 0.445419 0.105737
v 0.110834 0.429073 -0.066207
v 0.110101 0.431158 0.105737
v 0.079572 0.429073 -0.066207
v 0.080305 0.431158 0.105737
v 0.060080 0.444722 -0.066207
v 0.062542 0.445419 0.105737
v 0.067036 0.464235 -0.066207
v 0.068649 0.462551 0.105737
v 0.123370 0.464235 0.105737
v 0.095203 0.472920 0.105737
v 0.130326 0.444722 0.105737
v 0.110834 0.429073 0.105737
v 0.079572 0.429073 0.105737
v 0.060080 0.444722 0.105737
v 0.067036 0.464235 0.105737
v 0.120007 0.460723 0.099876
v 0.095203 0.468371 0.099876
v 0.125194 0.446175 0.099876
v 0.109305 0.433420 0.099876
v 0.081100 0.433420 0.099876
v 0.065212 0.446175 0.099876
v 0.070399 0.460723 0.099876
v 0.121757 0.462551 0.099876
v 0.095203 0.470738 0.099876
v 0.127864 0.445419 0.099876
v 0.110101 0.431158 0.099876
v 0.080305 0.431158 0.099876
v 0.062542 0.445419 0.099876
v 0.068649 0.462551 0.099876
v 0.120007 0.460723 0.105736
v 0.095203 0.468371 0.105736
v 0.125194 0.446175 0.105736
v 0.109305 0.433420 0.105736
v 0.081100 0.433420 0.105736
v 0.065212 0.446175 0.105736
v 0.070399 0.460723 0.105736
v -0.095203 0.472920 -0.066207
v -0.095203 0.470738 0.105737
v -0.123370 0.464235 -0.066207
v -0.121757 0.462551 0.105737
v -0.130326 0.444722 -0.066207
v -0.127864 0.445419 0.105737
v -0.110834 0.429073 -0.066207
v -0.110101 0.431158 0.105737
v -0.079572 0.429073 -0.066207
v -0.080305 0.431158 0.105737
v -0.060079 0.444722 -0.066207
v -0.062542 0.445419 0.105737
v -0.067036 0.464235 -0.066207
v -0.068649 0.462551 0.105737
v -0.123370 0.464235 0.105737
v -0.095203 0.472920 0.105737
v -0.130326 0.444722 0.105737
v -0.110834 0.429073 0.105737
v -0.079572 0.429073 0.105737
v -0.060079 0.444722 0.105737
v -0.067036 0.464235 0.105737
v -0.120007 0.460723 0.099876
v -0.095203 0.468371 0.099876
v -0.125194 0.446175 0.099876
v -0.109305 0.433420 0.099876
v -0.081100 0.433420 0.099876
v -0.065212 0.446175 0.099876
v -0.070399 0.460723 0.099876
v -0.121757 0.462551 0.099876
v -0.095203 0.470738 0.099876
v -0.127864 0.445419 0.099876
v -0.110101 0.431158 0.099876
v -0.080305 0.431158 0.099876
v -0.062542 0.445419 0.099876
v -0.068649 0.462551 0.099876
v -0.120007 0.460723 0.105736
v -0.095203 0.468371 0.105736
v -0.125194 0.446175 0.105736
v -0.109305 0.433420 0.105736
v -0.081100 0.433420 0.105736
v -0.065212 0.446175 0.105736
v -0.070399 0.460723 0.105736
v -0.000000 0.496508 -0.123721
v -0.000000 0.496744 0.164432
v 0.059448 0.478179 -0.123721
v 0.059623 0.478361 0.164432
v 0.073070 0.439970 -0.123721
v 0.073337 0.439894 0.164432
v 0.033372 0.408099 -0.123721
v 0.033452 0.407873 0.164432
v -0.033372 0.408099 -0.123721
v -0.033452 0.407873 0.164432
v -0.073070 0.439970 -0.123721
v -0.073337 0.439894 0.164432
v -0.059448 0.478179 -0.123721
v -0.059623 0.478361 0.164432
v 0.063245 0.482144 0.164432
v -0.000000 0.501643 0.164432
v 0.078865 0.438329 0.164432
v 0.035098 0.403191 0.164432
v -0.035098 0.403191 0.164432
v -0.078865 0.438329 0.164432
v -0.063245 0.482144 0.164432
v 0.055497 0.474052 0.146369
v -0.000000 0.491163 0.146369
v 0.067039 0.441677 0.146369
v 0.031575 0.413207 0.146369
v -0.031575 0.413207 0.146369
v -0.067039 0.441677 0.146369
v -0.055497 0.474052 0.146369
v 0.059623 0.478361 0.146369
v -0.000000 0.496744 0.146369
v 0.073337 0.439894 0.146369
v 0.033452 0.407873 0.146369
v -0.033452 0.407873 0.146369
v -0.073337 0.439894 0.146369
v -0.059623 0.478361 0.146369
v 0.055497 0.474052 0.164432
v -0.000000 0.491163 0.164432
v 0.067039 0.441677 0.164432
v 0.031575 0.413207 0.164432
v -0.031575 0.413207 0.164432
v -0.067039 0.441677 0.164432
v -0.055497 0.474052 0.164432
v 0.000000 0.493818 -0.125896
v 0.000000 0.493922 -0.056184
v 0.010689 0.490522 -0.125896
v 0.010766 0.490603 -0.056184
v 0.013125 0.483691 -0.125896
v 0.013242 0.483657 -0.056184
v 0.006005 0.477975 -0.125896
v 0.006041 0.477875 -0.056184
v -0.006005 0.477975 -0.125896
v -0.006040 0.477875 -0.056184
v -0.013124 0.483691 -0.125896
v -0.013242 0.483657 -0.056184
v -0.010688 0.490522 -0.125896
v -0.010766 0.490603 -0.056184
v 0.011420 0.491286 -0.056184
v 0.000000 0.494807 -0.056184
v 0.014241 0.483374 -0.056184
v 0.006338 0.477030 -0.056184
v -0.006337 0.477030 -0.056184
v -0.014240 0.483374 -0.056184
v -0.011420 0.491286 -0.056184
v 0.010021 0.489825 -0.059445
v 0.000000 0.492915 -0.059445
v 0.012105 0.483979 -0.059445
v 0.005702 0.478838 -0.059445
v -0.005701 0.478838 -0.059445
v -0.012105 0.483979 -0.059445
v -0.010021 0.489825 -0.059445
v 0.010766 0.490603 -0.059445
v 0.000000 0.493922 -0.059445
v 0.013242 0.483657 -0.059445
v 0.006041 0.477875 -0.059445
v -0.006040 0.477875 -0.059445
v -0.013242 0.483657 -0.059445
v -0.010766 0.490603 -0.059445
v 0.010021 0.489825 -0.056184
v 0.000000 0.492915 -0.056184
v 0.012105 0.483979 -0.056184
v 0.005702 0.478838 -0.056184
v -0.005701 0.478838 -0.056184
v -0.012105 0.483979 -0.056184
v -0.010021 0.489825 -0.056184
v 0.000000 0.494807 -0.125896
v 0.011420 0.491286 -0.125896
v 0.014241 0.483374 -0.125896
v 0.006338 0.477030 -0.125896
v -0.006337 0.477030 -0.125896
v -0.014240 0.483374 -0.125896
v -0.011420 0.491286 -0.125896
v 0.000000 0.493818 -0.129419
v 0.010689 0.490522 -0.129419
v 0.013125 0.483691 -0.129419
v 0.006005 0.477975 -0.129419
v -0.006005 0.477975 -0.129419
v -0.013124 0.483691 -0.129419
v -0.010688 0.490522 -0.129419
v 0.008033 0.484023 -0.135825
v 0.008033 0.485649 -0.135825
v 0.010017 0.484023 -0.127131
v 0.010017 0.485649 -0.127131
v 0.004457 0.484023 -0.120160
v 0.004457 0.485649 -0.120160
v -0.004460 0.484023 -0.120160
v -0.004460 0.485649 -0.120160
v -0.010019 0.484023 -0.127131
v -0.010019 0.485649 -0.127131
v -0.008035 0.484023 -0.135825
v -0.008035 0.485649 -0.135825
v -0.005062 0.484023 -0.137257
v 0.005060 0.484023 -0.137257
v 0.005060 0.485649 -0.137257
v -0.005062 0.485649 -0.137257
v -0.000000 0.501643 -0.123721
v 0.063245 0.482144 -0.123721
v 0.078865 0.438329 -0.123721
v 0.035098 0.403191 -0.123721
v -0.035098 0.403191 -0.123721
v -0.078865 0.438329 -0.123721
v -0.063245 0.482144 -0.123721
v -0.000000 0.498222 -0.123721
v 0.060716 0.479502 -0.123721
v 0.075004 0.439422 -0.123721
v 0.033948 0.406461 -0.123721
v -0.033948 0.406461 -0.123721
v -0.075004 0.439422 -0.123721
v -0.060716 0.479502 -0.123721
v -0.000000 0.496508 -0.124484
v 0.059448 0.478179 -0.124484
v 0.073070 0.439970 -0.124484
v 0.033372 0.408099 -0.124484
v -0.033372 0.408099 -0.124484
v -0.073070 0.439970 -0.124484
v -0.059448 0.478179 -0.124484
v 0.000000 0.421381 -0.116910
v -0.000000 0.435422 -0.199334
v 0.063369 0.443190 -0.116910
v 0.035176 0.447529 -0.199334
v 0.039164 0.478477 -0.116910
v 0.021740 0.467117 -0.199334
v -0.039164 0.478477 -0.116910
v -0.021741 0.467117 -0.199334
v -0.063368 0.443190 -0.116910
v -0.035177 0.447529 -0.199334
vn 0.2946 0.9556 -0.0000
vn 0.9419 0.3358 -0.0000
vn 0.6260 -0.7798 -0.0000
vn -0.0000 -1.0000 -0.0000
vn -0.6260 -0.7798 -0.0000
vn 0.9419 -0.3358 -0.0000
vn -0.9419 0.3358 -0.0000
vn -0.2946 0.9556 -0.0000
vn -0.0000 -0.0000 -1.0000
vn -0.0000 -0.0000 1.0000
vn -0.0000 1.0000 -0.0000
vn -0.9419 -0.3358 -0.0000
vn 0.2946 -0.9556 -0.0000
vn 0.6260 0.7798 -0.0000
vn -0.6260 0.7798 -0.0000
vn -0.2946 -0.9556 -0.0000
vn -0.4339 -0.0000 -0.9010
vn 0.9749 -0.0000 -0.2225
vn 0.7818 -0.0000 0.6235
vn -0.7818 -0.0000 0.6235
vn -0.9749 -0.0000 -0.2225
vn 0.4339 -0.0000 -0.9010
vn 0.3213 -0.9335 -0.1590
vn 0.7996 0.5485 -0.2446
vn -0.0000 0.9906 -0.1365
vn -0.7996 0.5485 -0.2446
vn -0.3213 -0.9335 -0.1590
vt 1.000000 0.500000
vt 1.000000 1.000000
vt 0.857143 1.000000
vt 0.857143 0.500000
vt 0.714286 1.000000
vt 0.714286 0.500000
vt 0.571429 1.000000
vt 0.571429 0.500000
vt 0.428571 1.000000
vt 0.428571 0.500000
vt 0.285714 1.000000
vt 0.285714 0.500000
vt 0.073106 0.382110
vt 0.032419 0.203849
vt 0.142857 1.000000
vt 0.142857 0.500000
vt 0.000000 1.000000
vt 0.000000 0.500000
vt 0.750000 0.490000
vt 0.937640 0.399638
vt 0.983983 0.196595
vt 0.854132 0.033767
vt 0.645868 0.033767
vt 0.516017 0.196595
vt 0.562360 0.399638
vt 0.250000 0.467298
vt 0.426894 0.382110
vt 0.437640 0.399638
vt 0.250000 0.490000
vt 0.467581 0.203849
vt 0.483983 0.196595
vt 0.349247 0.055462
vt 0.354132 0.033767
vt 0.150754 0.055462
vt 0.145868 0.033767
vt 0.016017 0.196595
vt 0.062360 0.399638
vt 0.084762 0.363097
vt 0.050210 0.211718
vt 0.250000 0.442671
vt 0.415238 0.363097
vt 0.449790 0.211718
vt 0.343947 0.078995
vt 0.156053 0.078995
vt 0.533212 0.204200
vt 0.573625 0.381262
vt 0.250000 0.441432
vt 0.085348 0.362140
vt 0.414652 0.362140
vt 0.448895 0.212114
vt 0.343680 0.080179
vt 0.156320 0.080179
vt 0.051105 0.212114
vt 0.651330 0.058023
vt 0.534355 0.204705
vt 0.925626 0.380041
vt 0.750000 0.464618
vt 0.965645 0.204705
vt 0.848670 0.058023
vt 0.574374 0.380041
vt 0.089990 1.000000
vt 0.089990 0.500000
vt 0.368200 0.433078
vt 0.131800 0.433078
vt 0.016017 0.196595
vt 0.145868 0.033767
vt 0.354132 0.033767
vt 0.483983 0.196595
vt 0.910010 0.500000
vt 0.910010 1.000000
vt 0.631800 0.433078
vt 0.868200 0.433078
vt 0.983983 0.196595
vt 0.854132 0.033767
vt 0.645868 0.033767
vt 0.516017 0.196595
vt 0.930135 0.387396
vt 0.750000 0.474145
vt 0.972528 0.201661
vt 0.850720 0.048919
vt 0.649280 0.048919
vt 0.527472 0.201661
vt 0.569865 0.387396
vt 0.926375 0.381262
vt 0.750000 0.466200
vt 0.966788 0.204200
vt 0.849010 0.056511
vt 0.650990 0.056511
vt 0.800000 1.000000
vt 0.800000 0.500000
vt 0.600000 1.000000
vt 0.600000 0.500000
vt 0.400000 1.000000
vt 0.400000 0.500000
vt 0.478254 0.324164
vt 0.021746 0.324164
vt 0.108932 0.055836
vt 0.391068 0.055836
vt 0.200000 1.000000
vt 0.200000 0.500000
vt 0.978254 0.324164
vt 0.891068 0.055836
vt 0.608932 0.055836
vt 0.521746 0.324164
s 0
f 1/1/1 16/2/1 15/3/1 3/4/1
f 3/4/2 15/3/2 17/5/2 5/6/2
f 5/6/3 17/5/3 18/7/3 7/8/3
f 7/8/4 18/7/4 19/9/4 9/10/4
f 9/10/5 19/9/5 20/11/5 11/12/5
f 14/13/6 12/14/6 34/14/6 35/13/6
f 11/12/7 20/11/7 21/15/7 13/16/7
f 13/16/8 21/15/8 16/17/8 1/18/8
f 1/19/9 3/20/9 5/21/9 7/22/9 9/23/9 11/24/9 13/25/9
f 2/26/10 4/27/10 15/28/10 16/29/10
f 4/27/10 6/30/10 17/31/10 15/28/10
f 6/30/10 8/32/10 18/33/10 17/31/10
f 8/32/10 10/34/10 19/35/10 18/33/10
f 10/34/10 12/14/10 20/36/10 19/35/10
f 12/14/10 14/13/10 21/37/10 20/36/10
f 14/13/10 2/26/10 16/29/10 21/37/10
f 28/38/7 27/39/7 41/39/7 42/38/7
f 10/34/11 8/32/11 32/32/11 33/34/11
f 6/30/12 4/27/12 29/27/12 31/30/12
f 2/26/13 14/13/13 35/13/13 30/26/13
f 12/14/14 10/34/14 33/34/14 34/14/14
f 8/32/15 6/30/15 31/30/15 32/32/15
f 4/27/16 2/26/16 30/26/16 29/27/16
f 23/40/10 22/41/10 29/27/10 30/26/10
f 22/41/10 24/42/10 31/30/10 29/27/10
f 24/42/10 25/43/10 32/32/10 31/30/10
f 25/43/10 26/44/10 33/34/10 32/32/10
f 26/44/10 27/39/10 34/14/10 33/34/10
f 27/39/10 28/38/10 35/13/10 34/14/10
f 28/38/10 23/40/10 30/26/10 35/13/10
f 36/41/10 37/40/10 42/38/10 41/39/10 40/44/10 39/43/10 38/42/10
f 26/44/4 25/43/4 39/43/4 40/44/4
f 24/42/2 22/41/2 36/41/2 38/42/2
f 23/40/8 28/38/8 42/38/8 37/40/8
f 27/39/5 26/44/5 40/44/5 41/39/5
f 25/43/3 24/42/3 38/42/3 39/43/3
f 22/41/1 23/40/1 37/40/1 36/41/1
f 43/1/8 45/4/8 57/3/8 58/2/8
f 45/4/7 47/6/7 59/5/7 57/3/7
f 47/6/5 49/8/5 60/7/5 59/5/5
f 49/8/4 51/10/4 61/9/4 60/7/4
f 51/10/3 53/12/3 62/11/3 61/9/3
f 56/13/12 77/13/12 76/14/12 54/14/12
f 53/12/2 55/16/2 63/15/2 62/11/2
f 55/16/1 43/18/1 58/17/1 63/15/1
f 43/19/9 55/25/9 53/24/9 51/23/9 49/22/9 47/21/9 45/20/9
f 44/26/10 58/29/10 57/28/10 46/27/10
f 46/27/10 57/28/10 59/31/10 48/30/10
f 48/30/10 59/31/10 60/33/10 50/32/10
f 50/32/10 60/33/10 61/35/10 52/34/10
f 52/34/10 61/35/10 62/36/10 54/14/10
f 54/14/10 62/36/10 63/37/10 56/13/10
f 56/13/10 63/37/10 58/29/10 44/26/10
f 70/38/2 84/38/2 83/39/2 69/39/2
f 52/34/11 75/34/11 74/32/11 50/32/11
f 48/30/6 73/30/6 71/27/6 46/27/6
f 44/26/16 72/26/16 77/13/16 56/13/16
f 54/14/15 76/14/15 75/34/15 52/34/15
f 50/32/14 74/32/14 73/30/14 48/30/14
f 46/27/13 71/27/13 72/26/13 44/26/13
f 65/40/10 72/26/10 71/27/10 64/41/10
f 64/41/10 71/27/10 73/30/10 66/42/10
f 66/42/10 73/30/10 74/32/10 67/43/10
f 67/43/10 74/32/10 75/34/10 68/44/10
f 68/44/10 75/34/10 76/14/10 69/39/10
f 69/39/10 76/14/10 77/13/10 70/38/10
f 70/38/10 77/13/10 72/26/10 65/40/10
f 78/41/10 80/42/10 81/43/10 82/44/10 83/39/10 84/38/10 79/40/10
f 68/44/4 82/44/4 81/43/4 67/43/4
f 66/42/7 80/42/7 78/41/7 64/41/7
f 65/40/1 79/40/1 84/38/1 70/38/1
f 69/39/3 83/39/3 82/44/3 68/44/3
f 67/43/5 81/43/5 80/42/5 66/42/5
f 64/41/8 78/41/8 79/40/8 65/40/8
f 199/1/1 100/2/1 99/3/1 200/4/1
f 200/4/2 99/3/2 101/5/2 201/6/2
f 201/6/3 101/5/3 102/7/3 202/8/3
f 202/8/4 102/7/4 103/9/4 203/10/4
f 203/10/5 103/9/5 104/11/5 204/12/5
f 98/13/6 96/14/6 118/14/6 119/13/6
f 204/12/7 104/11/7 105/15/7 205/16/7
f 205/16/8 105/15/8 100/17/8 199/18/8
f 95/45/7 97/46/7 219/46/7 218/45/7
f 86/26/10 88/27/10 99/28/10 100/29/10
f 88/27/10 90/30/10 101/31/10 99/28/10
f 90/30/10 92/32/10 102/33/10 101/31/10
f 92/32/10 94/34/10 103/35/10 102/33/10
f 94/34/10 96/14/10 104/36/10 103/35/10
f 96/14/10 98/13/10 105/37/10 104/36/10
f 98/13/10 86/26/10 100/29/10 105/37/10
f 107/47/8 112/48/8 126/48/8 121/47/8
f 94/34/11 92/32/11 116/32/11 117/34/11
f 90/30/12 88/27/12 113/27/12 115/30/12
f 86/26/13 98/13/13 119/13/13 114/26/13
f 96/14/14 94/34/14 117/34/14 118/14/14
f 92/32/15 90/30/15 115/30/15 116/32/15
f 88/27/16 86/26/16 114/26/16 113/27/16
f 107/47/10 106/49/10 113/27/10 114/26/10
f 106/49/10 108/50/10 115/30/10 113/27/10
f 108/50/10 109/51/10 116/32/10 115/30/10
f 109/51/10 110/52/10 117/34/10 116/32/10
f 110/52/10 111/53/10 118/14/10 117/34/10
f 111/53/10 112/48/10 119/13/10 118/14/10
f 112/48/10 107/47/10 114/26/10 119/13/10
f 120/49/10 121/47/10 126/48/10 125/53/10 124/52/10 123/51/10 122/50/10
f 111/53/5 110/52/5 124/52/5 125/53/5
f 109/51/3 108/50/3 122/50/3 123/51/3
f 106/49/1 107/47/1 121/47/1 120/49/1
f 112/48/7 111/53/7 125/53/7 126/48/7
f 110/52/4 109/51/4 123/51/4 124/52/4
f 108/50/2 106/49/2 120/49/2 122/50/2
f 169/1/1 142/2/1 141/3/1 170/4/1
f 170/4/2 141/3/2 143/5/2 171/6/2
f 171/6/3 143/5/3 144/7/3 172/8/3
f 172/8/4 144/7/4 145/9/4 173/10/4
f 173/10/5 145/9/5 146/11/5 174/12/5
f 140/13/6 138/14/6 160/14/6 161/13/6
f 174/12/7 146/11/7 147/15/7 175/16/7
f 175/16/8 147/15/8 142/17/8 169/18/8
f 135/54/5 137/55/5 181/55/5 180/54/5
f 128/26/10 130/27/10 141/28/10 142/29/10
f 130/27/10 132/30/10 143/31/10 141/28/10
f 132/30/10 134/32/10 144/33/10 143/31/10
f 134/32/10 136/34/10 145/35/10 144/33/10
f 136/34/10 138/14/10 146/36/10 145/35/10
f 138/14/10 140/13/10 147/37/10 146/36/10
f 140/13/10 128/26/10 142/29/10 147/37/10
f 149/47/8 154/48/8 168/48/8 163/47/8
f 136/34/11 134/32/11 158/32/11 159/34/11
f 132/30/12 130/27/12 155/27/12 157/30/12
f 128/26/13 140/13/13 161/13/13 156/26/13
f 138/14/14 136/34/14 159/34/14 160/14/14
f 134/32/15 132/30/15 157/30/15 158/32/15
f 130/27/16 128/26/16 156/26/16 155/27/16
f 149/47/10 148/49/10 155/27/10 156/26/10
f 148/49/10 150/50/10 157/30/10 155/27/10
f 150/50/10 151/51/10 158/32/10 157/30/10
f 151/51/10 152/52/10 159/34/10 158/32/10
f 152/52/10 153/53/10 160/14/10 159/34/10
f 153/53/10 154/48/10 161/13/10 160/14/10
f 154/48/10 149/47/10 156/26/10 161/13/10
f 162/49/10 163/47/10 168/48/10 167/53/10 166/52/10 165/51/10 164/50/10
f 153/53/5 152/52/5 166/52/5 167/53/5
f 151/51/3 150/50/3 164/50/3 165/51/3
f 148/49/1 149/47/1 163/47/1 162/49/1
f 154/48/7 153/53/7 167/53/7 168/48/7
f 152/52/4 151/51/4 165/51/4 166/52/4
f 150/50/2 148/49/2 162/49/2 164/50/2
f 129/56/9 127/57/9 169/19/9 170/20/9
f 131/58/9 129/56/9 170/20/9 171/21/9
f 133/59/9 131/58/9 171/21/9 172/22/9
f 135/54/9 133/59/9 172/22/9 173/23/9
f 137/55/9 135/54/9 173/23/9 174/24/9
f 139/60/9 137/55/9 174/24/9 175/25/9
f 127/57/9 139/60/9 175/25/9 169/19/9
f 176/57/9 177/56/9 178/58/9 179/59/9 180/54/9 181/55/9 182/60/9
f 131/58/3 133/59/3 179/59/3 178/58/3
f 127/57/1 129/56/1 177/56/1 176/57/1
f 137/55/7 139/60/7 182/60/7 181/55/7
f 133/59/4 135/54/4 180/54/4 179/59/4
f 129/56/2 131/58/2 178/58/2 177/56/2
f 139/60/8 127/57/8 176/57/8 182/60/8
f 193/16/17 194/15/17 198/61/17 195/62/17
f 183/4/18 184/3/18 186/5/18 185/6/18
f 185/6/19 186/5/19 188/7/19 187/8/19
f 187/8/10 188/7/10 190/9/10 189/10/10
f 189/10/20 190/9/20 192/11/20 191/12/20
f 191/12/21 192/11/21 194/15/21 193/16/21
f 184/28/11 197/63/11 198/64/11 194/37/11 192/65/11 190/66/11 188/67/11 186/68/11
f 196/69/22 197/70/22 184/3/22 183/4/22
f 195/62/9 198/61/9 197/17/9 196/18/9
f 195/71/4 196/72/4 183/20/4 185/73/4 187/74/4 189/75/4 191/76/4 193/25/4
f 207/77/9 206/78/9 199/19/9 200/20/9
f 208/79/9 207/77/9 200/20/9 201/21/9
f 209/80/9 208/79/9 201/21/9 202/22/9
f 210/81/9 209/80/9 202/22/9 203/23/9
f 211/82/9 210/81/9 203/23/9 204/24/9
f 212/83/9 211/82/9 204/24/9 205/25/9
f 206/78/9 212/83/9 205/25/9 199/19/9
f 87/84/9 85/85/9 206/78/9 207/77/9
f 89/86/9 87/84/9 207/77/9 208/79/9
f 91/87/9 89/86/9 208/79/9 209/80/9
f 93/88/9 91/87/9 209/80/9 210/81/9
f 95/45/9 93/88/9 210/81/9 211/82/9
f 97/46/9 95/45/9 211/82/9 212/83/9
f 85/85/9 97/46/9 212/83/9 206/78/9
f 213/85/9 214/84/9 215/86/9 216/87/9 217/88/9 218/45/9 219/46/9
f 91/87/4 93/88/4 217/88/4 216/87/4
f 87/84/2 89/86/2 215/86/2 214/84/2
f 97/46/8 85/85/8 213/85/8 219/46/8
f 93/88/5 95/45/5 218/45/5 217/88/5
f 89/86/3 91/87/3 216/87/3 215/86/3
f 85/85/1 87/84/1 214/84/1 213/85/1
f 220/1/23 221/2/23 223/89/23 222/90/23
f 222/90/24 223/89/24 225/91/24 224/92/24
f 224/92/25 225/91/25 227/93/25 226/94/25
f 223/95/9 221/29/9 229/96/9 227/97/9 225/98/9
f 226/94/26 227/93/26 229/99/26 228/100/26
f 228/100/27 229/99/27 221/17/27 220/18/27
f 220/19/10 222/101/10 224/102/10 226/103/10 228/104/10
