# Blender 4.2.0
# www.blender.org
mtllib landingPad.mtl
o Landing_Pad
v 0.000027 -0.000000 -0.562707
v 0.000027 0.299407 -0.552151
v 0.440132 -0.000000 -0.350763
v 0.431879 0.299407 -0.344182
v 0.548829 -0.000000 0.125469
v 0.538538 0.299407 0.123120
v 0.244267 -0.000000 0.507378
v 0.239687 0.299407 0.497868
v -0.244213 -0.000000 0.507378
v -0.239633 0.299407 0.497868
v -0.548775 -0.000000 0.125469
v -0.538484 0.299407 0.123120
v -0.440078 -0.000000 -0.350763
v -0.431825 0.299407 -0.344182
v 0.440132 0.299407 -0.350763
v 0.000027 0.299407 -0.562707
v 0.548829 0.299407 0.125469
v 0.244267 0.299407 0.507378
v -0.244213 0.299407 0.507378
v -0.548775 0.299407 0.125469
v -0.440078 0.299407 -0.350763
v 0.274077 0.309800 -0.218339
v 0.000027 0.309800 -0.350315
v 0.341762 0.309800 0.078208
v 0.152113 0.309800 0.316019
v -0.152059 0.309800 0.316019
v -0.341708 0.309800 0.078208
v -0.274023 0.309800 -0.218339
v 0.431879 0.309800 -0.344182
v 0.000027 0.309800 -0.552151
v 0.538538 0.309800 0.123120
v 0.239687 0.309800 0.497868
v -0.239633 0.309800 0.497868
v -0.538484 0.309800 0.123120
v -0.431825 0.309800 -0.344182
v 0.264041 0.376108 -0.210336
v 0.000027 0.376108 -0.337478
v 0.329247 0.376108 0.075351
v 0.146544 0.376108 0.304454
v -0.146490 0.376108 0.304454
v -0.329193 0.376108 0.075351
v -0.263987 0.376108 -0.210336
v 0.000027 0.309800 -0.511784
v 0.000027 0.338280 -0.445909
v 0.000027 0.338280 -0.407725
v 0.000027 0.309800 -0.390682
v 0.305638 0.309800 -0.243508
v 0.318963 0.338280 -0.254134
v 0.348816 0.338280 -0.277941
v 0.400319 0.309800 -0.319013
v 0.381117 0.309800 0.087190
v 0.397733 0.338280 0.090983
v 0.434960 0.338280 0.099479
v 0.499183 0.309800 0.114138
v 0.169628 0.309800 0.352389
v 0.177023 0.338280 0.367744
v 0.193590 0.338280 0.402147
v 0.222172 0.309800 0.461498
v -0.169574 0.309800 0.352389
v -0.176969 0.338280 0.367744
v -0.193536 0.338280 0.402147
v -0.222118 0.309800 0.461498
v -0.381063 0.309800 0.087190
v -0.397679 0.338280 0.090983
v -0.434906 0.338280 0.099479
v -0.499129 0.309800 0.114138
v -0.305584 0.309800 -0.243508
v -0.318908 0.338280 -0.254134
v -0.348762 0.338280 -0.277941
v -0.400265 0.309800 -0.319013
v 0.274077 0.376108 -0.218339
v 0.000027 0.376108 -0.350315
v 0.341762 0.376108 0.078208
v 0.152113 0.376108 0.316019
v -0.152059 0.376108 0.316019
v -0.341708 0.376108 0.078208
v -0.274023 0.376108 -0.218339
v 0.264041 0.388007 -0.210336
v 0.000027 0.388007 -0.337478
v 0.329247 0.388007 0.075351
v 0.146544 0.388007 0.304454
v -0.146490 0.388007 0.304454
v -0.329193 0.388007 0.075351
v -0.263987 0.388007 -0.210336
v 0.281541 0.392000 -0.224185
v 0.000039 0.392000 -0.359749
v 0.351067 0.392000 0.080425
v 0.156261 0.392000 0.324704
v -0.156183 0.392000 0.324704
v -0.350988 0.392000 0.080425
v -0.281463 0.392000 -0.224185
v 0.281139 0.403192 -0.227301
v -0.000363 0.403192 -0.362865
v 0.350664 0.403192 0.077309
v 0.155859 0.403192 0.321588
v -0.156585 0.403192 0.321588
v -0.351391 0.403192 0.077309
v -0.281865 0.403192 -0.227301
vn 0.4339 -0.0000 -0.9010
vn 0.9749 -0.0000 -0.2225
vn 0.7818 -0.0000 0.6235
vn -0.0000 -0.0000 1.0000
vn -0.7818 -0.0000 0.6235
vn -0.4339 -0.0000 -0.9010
vn -0.9749 -0.0000 -0.2225
vn -0.0000 -1.0000 -0.0000
vn -0.0000 1.0000 -0.0000
vn 0.3819 0.4746 0.7930
vn -0.1877 0.9016 -0.3898
vn 0.8581 0.4746 0.1959
vn -0.4218 0.9016 -0.0963
vn 0.6882 0.4746 -0.5488
vn -0.3382 0.9016 0.2697
vn -0.0000 0.4746 -0.8802
vn -0.0000 0.9016 0.4326
vn -0.6882 0.4746 -0.5488
vn 0.3382 0.9016 0.2697
vn -0.8581 0.4746 0.1959
vn 0.4218 0.9016 -0.0963
vn -0.3819 0.4746 0.7930
vn 0.1877 0.9016 -0.3898
vn -0.1898 -0.9809 -0.0433
vn 0.7664 0.1977 0.6112
vn -0.0000 -0.9811 0.1934
vn 0.1895 -0.9809 -0.0433
vn -0.0847 -0.9808 -0.1759
vn -0.1516 -0.9810 0.1209
vn 0.1514 -0.9811 0.1208
vn 0.0846 -0.9808 -0.1758
vn 0.4224 -0.2290 -0.8770
vn -0.9704 -0.0966 -0.2215
vn -0.0000 0.2682 0.9634
vn 0.9746 -0.0269 -0.2224
vn -0.4193 -0.2574 -0.8706
vn -0.7737 0.1440 0.6170
vt 1.000000 0.500000
vt 1.000000 1.000000
vt 0.857143 1.000000
vt 0.857143 0.500000
vt 0.714286 1.000000
vt 0.714286 0.500000
vt 0.571429 1.000000
vt 0.571429 0.500000
vt 0.428571 1.000000
vt 0.428571 0.500000
vt 0.285714 1.000000
vt 0.285714 0.500000
vt 0.250000 0.485500
vt 0.065879 0.396832
vt 0.142857 1.000000
vt 0.142857 0.500000
vt 0.000000 1.000000
vt 0.000000 0.500000
vt 0.750000 0.490000
vt 0.937640 0.399638
vt 0.983983 0.196595
vt 0.854132 0.033767
vt 0.645868 0.033767
vt 0.516017 0.196595
vt 0.562360 0.399638
vt 0.434121 0.396832
vt 0.437640 0.399638
vt 0.250000 0.490000
vt 0.479595 0.197596
vt 0.483983 0.196595
vt 0.352179 0.037822
vt 0.354132 0.033767
vt 0.147821 0.037822
vt 0.145868 0.033767
vt 0.020405 0.197596
vt 0.016017 0.196595
vt 0.062360 0.399638
vt 0.250000 0.399446
vt 0.133158 0.343178
vt 0.250000 0.468289
vt 0.420665 0.386101
vt 0.462816 0.201426
vt 0.344712 0.053328
vt 0.155288 0.053328
vt 0.037184 0.201426
vt 0.079335 0.386101
vt 0.390364 0.217963
vt 0.362563 0.339766
vt 0.104301 0.216745
vt 0.185158 0.115354
vt 0.314842 0.115354
vt 0.395699 0.216745
vt 0.366842 0.343178
vt 0.250000 0.416657
vt 0.119702 0.353909
vt 0.250000 0.433868
vt 0.106247 0.364640
vt 0.250000 0.451078
vt 0.092791 0.375370
vt 0.087522 0.212915
vt 0.070742 0.209086
vt 0.053963 0.205256
vt 0.177690 0.099847
vt 0.170223 0.084341
vt 0.162755 0.068835
vt 0.322310 0.099847
vt 0.329777 0.084341
vt 0.337245 0.068835
vt 0.412479 0.212915
vt 0.429258 0.209086
vt 0.446037 0.205256
vt 0.380298 0.353909
vt 0.393753 0.364640
vt 0.407209 0.375370
vt 0.250000 0.393973
vt 0.312468 0.120285
vt 0.187532 0.120285
vt 0.109636 0.217963
vt 0.137437 0.339766
s 0
f 1/1/1 16/2/1 15/3/1 3/4/1
f 3/4/2 15/3/2 17/5/2 5/6/2
f 5/6/3 17/5/3 18/7/3 7/8/3
f 7/8/4 18/7/4 19/9/4 9/10/4
f 9/10/5 19/9/5 20/11/5 11/12/5
f 2/13/6 14/14/6 35/14/6 30/13/6
f 11/12/7 20/11/7 21/15/7 13/16/7
f 13/16/6 21/15/6 16/17/6 1/18/6
f 1/19/8 3/20/8 5/21/8 7/22/8 9/23/8 11/24/8 13/25/8
f 2/13/9 4/26/9 15/27/9 16/28/9
f 4/26/9 6/29/9 17/30/9 15/27/9
f 6/29/9 8/31/9 18/32/9 17/30/9
f 8/31/9 10/33/9 19/34/9 18/32/9
f 10/33/9 12/35/9 20/36/9 19/34/9
f 12/35/9 14/14/9 21/37/9 20/36/9
f 14/14/9 2/13/9 16/28/9 21/37/9
f 23/38/6 28/39/6 77/39/6 72/38/6
f 12/35/5 10/33/5 33/33/5 34/35/5
f 8/31/3 6/29/3 31/29/3 32/31/3
f 4/26/1 2/13/1 30/13/1 29/26/1
f 14/14/7 12/35/7 34/35/7 35/14/7
f 10/33/4 8/31/4 32/31/4 33/33/4
f 6/29/2 4/26/2 29/26/2 31/29/2
f 43/40/9 50/41/9 29/26/9 30/13/9
f 50/41/9 54/42/9 31/29/9 29/26/9
f 54/42/9 58/43/9 32/31/9 31/29/9
f 58/43/9 62/44/9 33/33/9 32/31/9
f 62/44/9 66/45/9 34/35/9 33/33/9
f 66/45/9 70/46/9 35/14/9 34/35/9
f 70/46/9 43/40/9 30/13/9 35/14/9
f 38/47/2 36/48/2 78/48/2 80/47/2
f 27/49/5 26/50/5 75/50/5 76/49/5
f 25/51/3 24/52/3 73/52/3 74/51/3
f 22/53/1 23/38/1 72/38/1 71/53/1
f 28/39/7 27/49/7 76/49/7 77/39/7
f 26/50/4 25/51/4 74/51/4 75/50/4
f 24/52/2 22/53/2 71/53/2 73/52/2
f 28/39/9 23/38/9 46/54/9 67/55/9
f 67/55/10 46/54/10 45/56/10 68/57/10
f 68/57/9 45/56/9 44/58/9 69/59/9
f 69/59/11 44/58/11 43/40/11 70/46/11
f 27/49/9 28/39/9 67/55/9 63/60/9
f 63/60/12 67/55/12 68/57/12 64/61/12
f 64/61/9 68/57/9 69/59/9 65/62/9
f 65/62/13 69/59/13 70/46/13 66/45/13
f 26/50/9 27/49/9 63/60/9 59/63/9
f 59/63/14 63/60/14 64/61/14 60/64/14
f 60/64/9 64/61/9 65/62/9 61/65/9
f 61/65/15 65/62/15 66/45/15 62/44/15
f 25/51/9 26/50/9 59/63/9 55/66/9
f 55/66/16 59/63/16 60/64/16 56/67/16
f 56/67/9 60/64/9 61/65/9 57/68/9
f 57/68/17 61/65/17 62/44/17 58/43/17
f 24/52/9 25/51/9 55/66/9 51/69/9
f 51/69/18 55/66/18 56/67/18 52/70/18
f 52/70/9 56/67/9 57/68/9 53/71/9
f 53/71/19 57/68/19 58/43/19 54/42/19
f 22/53/9 24/52/9 51/69/9 47/72/9
f 47/72/20 51/69/20 52/70/20 48/73/20
f 48/73/9 52/70/9 53/71/9 49/74/9
f 49/74/21 53/71/21 54/42/21 50/41/21
f 23/38/9 22/53/9 47/72/9 46/54/9
f 46/54/22 47/72/22 48/73/22 45/56/22
f 45/56/9 48/73/9 49/74/9 44/58/9
f 44/58/23 49/74/23 50/41/23 43/40/23
f 37/75/9 36/48/9 71/53/9 72/38/9
f 36/48/9 38/47/9 73/52/9 71/53/9
f 38/47/9 39/76/9 74/51/9 73/52/9
f 39/76/9 40/77/9 75/50/9 74/51/9
f 40/77/9 41/78/9 76/49/9 75/50/9
f 41/78/9 42/79/9 77/39/9 76/49/9
f 42/79/9 37/75/9 72/38/9 77/39/9
f 84/79/24 83/78/24 90/78/24 91/79/24
f 37/75/6 42/79/6 84/79/6 79/75/6
f 41/78/5 40/77/5 82/77/5 83/78/5
f 39/76/3 38/47/3 80/47/3 81/76/3
f 36/48/1 37/75/1 79/75/1 78/48/1
f 42/79/7 41/78/7 83/78/7 84/79/7
f 40/77/4 39/76/4 81/76/4 82/77/4
f 88/76/25 87/47/25 94/47/25 95/76/25
f 82/77/26 81/76/26 88/76/26 89/77/26
f 80/47/27 78/48/27 85/48/27 87/47/27
f 79/75/28 84/79/28 91/79/28 86/75/28
f 83/78/29 82/77/29 89/77/29 90/78/29
f 81/76/30 80/47/30 87/47/30 88/76/30
f 78/48/31 79/75/31 86/75/31 85/48/31
f 92/48/9 93/75/9 98/79/9 97/78/9 96/77/9 95/76/9 94/47/9
f 85/48/32 86/75/32 93/75/32 92/48/32
f 91/79/33 90/78/33 97/78/33 98/79/33
f 89/77/34 88/76/34 95/76/34 96/77/34
f 87/47/35 85/48/35 92/48/35 94/47/35
f 86/75/36 91/79/36 98/79/36 93/75/36
f 90/78/37 89/77/37 96/77/37 97/78/37
